# xmcd
#
# Track frame offsets:
#	150
#	19789
#	41133
#	55054
#	71711
#	87394
#	102775
#	117362
#	135109
#	154269
#	169914
#	186515
#	201717
#	217399
#	231501
#	244756
#	258690
#	275060
#	290253
#	302940
#
# Disc length: 4238 seconds
#
# Revision: 1
# Processed by: cddbd v1.5.2PL0 Copyright (c) Steve Scherf et al.
# Submitted via: audiograbber 1.83.01
#
DISCID=42108c14
DTITLE=Pop Rock Tamburica - Pop Rock Tamburica
DYEAR=1999
DGENRE=Rock
TTITLE0=Davorin Popovic-Zute Dunje
TTITLE1=Zeljko Bebek-Oprosti mi sto te volim
TTITLE2=Miroslav Skoro-Sto te imam moje zivote
TTITLE3=Prljavo Kazaliste-Uzalud vam trud sviraci
TTITLE4=Zeljko Jaksimovic-Ne dam Nikom da te dira
TTITLE5=Vruci Vetar-A Sad Adio
TTITLE6=Oliver Dragojevic-Svirajte Nocas Za moju Dusu
TTITLE7=Miki Jevremovic-Pijem
TTITLE8=Koktel Band-Ja te zovem sudbina
TTITLE9=Sandy-E da mi je
TTITLE10=Ivan-Muko moja
TTITLE11=Danijela-Ide mi u zivotu
TTITLE12=Dolores-Nije mi
TTITLE13=Minea-Rano je
TTITLE14=Koktel Bend-Ne kuni srce moje
TTITLE15=Zejlko Bebek-Lagao,Ne Lagao
TTITLE16=Goran Karan-Ja sam samo Vagabundo
TTITLE17=Sandy-Neka zaborave me svi
TTITLE18=Koktel Band-Svetica
TTITLE19=Mico Vujovic-Moja Dunja Mirisina
EXTD=
EXTT0=
EXTT1=
EXTT2=
EXTT3=
EXTT4=
EXTT5=
EXTT6=
EXTT7=
EXTT8=
EXTT9=
EXTT10=
EXTT11=
EXTT12=
EXTT13=
EXTT14=
EXTT15=
EXTT16=
EXTT17=
EXTT18=
EXTT19=
PLAYORDER=
